<svg xmlns="http://www.w3.org/2000/svg" xmlns:xlink="http://www.w3.org/1999/xlink" width="874.99" height="580.73" viewBox="0 0 874.99 580.73"><defs><style>.a{opacity:0.5;}.b{fill:url(#a);}.c{fill:#f5f5f5;}.d{fill:#051937;}.e{fill:#e0e0e0;}.f{fill:#fff;}.g{fill:#004d7a;}.h{fill:none;stroke:#535461;stroke-miterlimit:10;}.i{fill:url(#c);}.j{fill:#333;}.k{fill:#005b44;}.l{opacity:0.1;}.m{fill:#fdb797;}.n{fill:url(#d);}.o{fill:#008793;}</style><linearGradient id="a" x1="0.5" y1="1" x2="0.5" gradientUnits="objectBoundingBox"><stop offset="0" stop-color="gray" stop-opacity="0.251"/><stop offset="0.54" stop-color="gray" stop-opacity="0.122"/><stop offset="1" stop-color="gray" stop-opacity="0.102"/></linearGradient><linearGradient id="c" x1="0.5" y1="1" x2="0.5" gradientUnits="objectBoundingBox"><stop offset="0" stop-color="#2b2525" stop-opacity="0.961"/><stop offset="1" stop-color="#1d1b1b" stop-opacity="0.4"/></linearGradient><linearGradient id="d" x1="0.5" y1="1" x2="0.5" gradientUnits="objectBoundingBox"><stop offset="0" stop-color="gray" stop-opacity="0.251"/><stop offset="0" stop-color="gray" stop-opacity="0.169"/><stop offset="0.003" stop-color="#362e2e" stop-opacity="0.812"/><stop offset="1" stop-color="#221e1e" stop-opacity="0.929"/><stop offset="1" stop-color="gray" stop-opacity="0.102"/></linearGradient></defs><g transform="translate(-404.01 -142.62)"><g class="a" transform="translate(563 175)"><rect class="b" width="465.71" height="429.68" rx="4.5" transform="translate(0 19.38)"/></g><rect class="c" width="454.97" height="419.26" rx="4.5" transform="translate(568.68 197.71)"/><path class="d" d="M4.5,0H72.23a4.5,4.5,0,0,1,4.5,4.5V64.56a4.5,4.5,0,0,1-4.5,4.5H4.5A4.5,4.5,0,0,1,0,64.56V4.5A4.5,4.5,0,0,1,4.5,0Z" transform="translate(603.75 266.77)"/><rect class="e" width="305.02" height="7.67" rx="3.44" transform="translate(703.49 266.77)"/><rect class="e" width="305.02" height="7.67" rx="3.44" transform="translate(703.49 289.79)"/><rect class="e" width="412.44" height="7.67" rx="3.44" transform="translate(596.07 373.34)"/><rect class="e" width="412.44" height="7.67" rx="3.44" transform="translate(596.07 396.35)"/><rect class="e" width="412.44" height="7.67" rx="3.44" transform="translate(596.07 427.05)"/><rect class="e" width="237.86" height="7.67" rx="3.44" transform="translate(596.07 450.06)"/><rect class="e" width="412.44" height="7.67" rx="3.44" transform="translate(596.07 480.68)"/><rect class="e" width="412.44" height="7.67" rx="3.44" transform="translate(596.07 503.7)"/><rect class="e" width="412.44" height="7.67" rx="3.44" transform="translate(596.07 534.39)"/><rect class="e" width="237.86" height="7.67" rx="3.44" transform="translate(596.07 557.41)"/><g class="a" transform="translate(563 175)"><rect class="b" width="465.71" height="429.68" rx="4.5" transform="translate(70.29 118.67)"/></g><rect class="f" width="454.97" height="419.26" rx="4.5" transform="translate(638.97 297)"/><path class="g" d="M4.5,0H72.23a4.5,4.5,0,0,1,4.5,4.5V64.56a4.5,4.5,0,0,1-4.5,4.5H4.5A4.5,4.5,0,0,1,0,64.56V4.5A4.5,4.5,0,0,1,4.5,0Z" transform="translate(674.03 366.06)"/><rect class="e" width="305.02" height="7.67" rx="3.44" transform="translate(773.78 366.06)"/><rect class="e" width="305.02" height="7.67" rx="3.44" transform="translate(773.78 389.08)"/><rect class="e" width="383" height="7.67" rx="3.44" transform="translate(695.8 472.63)"/><rect class="e" width="383" height="7.67" rx="3.44" transform="translate(695.8 495.65)"/><rect class="e" width="412.44" height="7.67" rx="3.44" transform="translate(666.36 526.34)"/><rect class="e" width="237.86" height="7.67" rx="3.44" transform="translate(666.36 549.36)"/><rect class="e" width="412.44" height="7.67" rx="3.44" transform="translate(666.36 579.97)"/><rect class="e" width="412.44" height="7.67" rx="3.44" transform="translate(666.36 602.99)"/><rect class="e" width="412.44" height="7.67" rx="3.44" transform="translate(666.36 633.68)"/><rect class="e" width="237.86" height="7.67" rx="3.44" transform="translate(666.36 656.7)"/><line class="h" y1="4.12" x2="4.35" transform="translate(1134.02 555.16)"/><line class="h" x2="4.46" y2="4" transform="translate(532.02 267.93)"/><g class="a" transform="translate(-186 -322)"><circle class="i" cx="129.29" cy="129.29" r="129.29" transform="translate(590.01 464.62)"/></g><circle class="c" cx="126.56" cy="126.56" r="126.56" transform="translate(406.74 143.64)"/><path class="j" d="M969.3,683c0,46.61-30.42,98.5-67.93,98.5s-67.93-51.9-67.93-98.5,30.42-70.27,67.93-70.27S969.3,636.38,969.3,683Z" transform="translate(-366 -401.4)"/><path class="k" d="M899.66,798.54a126,126,0,0,0,69.57-20.82c-4.66-25.49-22.41-26.94-22.41-26.94H849s-16.75,1.38-22,24.82a126,126,0,0,0,72.66,22.94Z" transform="translate(-366 -401.4)"/><path class="l" d="M709.61,621.29h39.14v33.34a17.54,17.54,0,0,1-17.54,17.54h-4.06a17.54,17.54,0,0,1-17.54-17.54V621.29Z" transform="translate(-197 -303)"/><path class="m" d="M713,619.84h32.45a3.35,3.35,0,0,1,3.35,3.35v30a17.54,17.54,0,0,1-17.54,17.54H727.2a17.54,17.54,0,0,1-17.54-17.54v-30a3.35,3.35,0,0,1,3.34-3.35Z" transform="translate(-197 -303)"/><path class="l" d="M878.68,734.48a56.33,56.33,0,0,0,39.14.11v-4.81H878.68Z" transform="translate(-366 -401.4)"/><circle class="m" cx="56.1" cy="56.1" r="56.1" transform="translate(476.23 223.49)"/><ellipse class="m" cx="5.22" cy="9.79" rx="5.22" ry="9.79" transform="translate(472.16 267.41)"/><ellipse class="m" cx="5.22" cy="9.79" rx="5.22" ry="9.79" transform="translate(581.76 267.41)"/><path class="l" d="M848.61,650.56S880.37,694,953.07,679.15c0,0,8.12-9.88-11.65-40.23S866.61,613.51,848.61,650.56Z" transform="translate(-366 -401.4)"/><path class="j" d="M848.61,649.86s31.76,43.41,104.46,28.59c0,0,8.12-9.88-11.65-40.23S866.61,612.8,848.61,649.86Z" transform="translate(-366 -401.4)"/><g class="a" transform="translate(412 484)"><circle class="n" cx="129.29" cy="129.29" r="129.29" transform="translate(608.42 -33)"/></g><circle class="c" cx="126.56" cy="126.56" r="126.56" transform="translate(1023.41 453.9)"/><path class="o" d="M902.07,353.92a126,126,0,0,0,69.57-20.82c-4.66-25.49-22.41-26.94-22.41-26.94H851.37s-16.75,1.38-22,24.82a126,126,0,0,0,72.7,22.94Z" transform="translate(251 352.6)"/><circle class="j" cx="61.09" cy="61.09" r="61.09" transform="translate(1090.65 515.7)"/><path class="l" d="M712,176.67h39.14V210a17.54,17.54,0,0,1-17.54,17.54h-4.06A17.54,17.54,0,0,1,712,210Z" transform="translate(420 451)"/><path class="m" d="M715.37,175.22h32.45a3.35,3.35,0,0,1,3.35,3.35v30a17.54,17.54,0,0,1-17.54,17.54h-4.06A17.54,17.54,0,0,1,712,208.57v-30a3.35,3.35,0,0,1,3.37-3.35Z" transform="translate(420 451)"/><path class="l" d="M881.1,289.86a56.33,56.33,0,0,0,39.14.11v-4.81H881.1Z" transform="translate(251 352.6)"/><circle class="m" cx="56.1" cy="56.1" r="56.1" transform="translate(1095.64 532.87)"/><path class="l" d="M860.78,185.34s23.64,48,90.34,20.12l-15.53-24.35-27.53-9.88Z" transform="translate(251 352.6)"/><path class="j" d="M860.78,184.64s23.64,48,90.34,20.12L935.59,180.4l-27.53-9.88Z" transform="translate(251 352.6)"/><path class="j" d="M860.57,181.39a32.409,32.409,0,0,1,8-13.07c11-10.91,29.13-13.21,38.41-25.65a7.26,7.26,0,0,1-3.33,10.24c8.88-.06,19.19-.84,24.22-8.16a16.63,16.63,0,0,1-2.8,17.56c7.88.36,16.29,5.71,16.8,13.58.34,5.24-2.95,10.21-7.26,13.22s-9.52,4.39-14.66,5.52C905,197.94,850.79,211.79,860.57,181.39Z" transform="translate(251 352.6)"/><ellipse class="m" cx="5.22" cy="9.79" rx="5.22" ry="9.79" transform="translate(1090.39 579.13)"/><ellipse class="m" cx="5.22" cy="9.79" rx="5.22" ry="9.79" transform="translate(1202.62 579.13)"/><path class="e" d="M615.7,421.3l-29.916-30.734L615.7,359.83l5.984,6.15-23.93,24.586,23.93,24.584Z" transform="translate(74.113 97.9)"/><path class="e" d="M854.616,464.168l-4.492-4.414L868.083,442.1l-17.959-17.654,4.492-4.414,22.45,22.068Z" transform="translate(83 228)"/><rect class="e" width="44.613" height="5.688" transform="translate(908.155 690.519) rotate(-73.14)"/></g></svg>